<?xml version="1.0" encoding="UTF-8"?>
<svg width="802px" height="291px" viewBox="0 0 802 291" version="1.1" xmlns="http://www.w3.org/2000/svg" xmlns:xlink="http://www.w3.org/1999/xlink">
    <title>LOGO/positive</title>
    <defs>
        <polygon id="path-1" points="0.0005 0.767 369.8575 0.767 369.8575 289.9996 0.0005 289.9996"></polygon>
        <polygon id="path-3" points="0 290 801.671 290 801.671 0.767 0 0.767"></polygon>
    </defs>
    <g id="LOGO/positive" stroke="none" stroke-width="1" fill="none" fill-rule="evenodd">
        <g id="Group-10">
            <polygon id="Fill-1" fill="#00689F" points="761.2344 42.1849 761.1954 237.9219 801.6584 237.9219 801.6694 42.1849"></polygon>
            <g id="Group-9" transform="translate(0.000000, 0.233000)">
                <g id="Group-4">
                    <mask id="mask-2" fill="white">
                        <use xlink:href="#path-1"></use>
                    </mask>
                    <g id="Clip-3"></g>
                    <path d="M314.6295,253.2586 L297.8275,253.2156 C289.5615,252.4666 283.0115,245.9046 283.0115,237.8176 L282.9885,136.3446 C282.9885,128.2646 289.5345,121.6956 297.8005,120.9536 L314.6025,120.9956 C322.8685,121.7376 329.4185,128.3026 329.4185,136.3876 L329.4415,237.8666 C329.4415,245.9466 322.8915,252.5126 314.6295,253.2586 M154.6445,37.5046 L171.4425,37.5466 C179.7085,38.2926 186.2575,44.8586 186.2575,52.9426 L186.2575,91.1016 L139.8445,91.0976 L139.8285,52.8996 C139.8285,44.8156 146.3755,38.2506 154.6445,37.5046 M306.2165,84.2116 C271.0675,84.2116 242.5725,107.7916 242.5725,136.8746 L242.5765,167.4326 L154.6795,167.4326 C146.4135,166.6836 139.8675,160.1176 139.8675,152.0336 L139.8565,125.1616 L137.5375,125.1616 L137.5375,125.1546 L139.8565,125.1546 L139.8565,125.1616 L226.6635,125.1616 L226.7015,53.4256 C226.7015,24.3426 198.2065,0.7666 163.0575,0.7666 C127.9075,0.7666 99.4165,24.3426 99.4165,53.4256 L99.4165,91.0976 L40.4595,91.0976 L40.4595,40.5456 L0.0005,40.5456 L0.0265,237.6236 C2.7245,265.4386 27.2475,287.2176 57.0945,287.2296 L57.1175,287.2406 L90.7875,287.2406 L90.7875,252.5436 L55.2865,252.5436 C47.0205,251.7976 40.4705,245.2326 40.4705,237.1446 L40.4705,125.1546 L99.4205,125.1546 L99.4235,152.5086 C102.1215,180.3276 126.6405,202.0996 156.4875,202.1116 L156.5105,202.1266 L242.5765,202.1266 L242.5725,237.3456 C242.5765,266.4236 271.0675,289.9996 306.2125,289.9996 C341.3625,289.9996 369.8575,266.4196 369.8575,237.3376 L369.8575,136.8706 C369.8535,107.7836 341.3625,84.2116 306.2165,84.2116" id="Fill-2" fill="#00689F" mask="url(#mask-2)"></path>
                </g>
                <path d="M523.5636,38.2733 L540.3616,38.3153 C548.6266,39.0623 555.1766,45.6273 555.1766,53.7113 L555.1766,91.4533 L508.7616,91.4533 L508.7476,53.6693 C508.7476,45.5853 515.2966,39.0193 523.5636,38.2733 M656.5836,41.8783 L761.2356,41.9523 L761.2356,7.1043 L656.1156,7.1893 C629.1736,7.1893 607.7996,28.0373 607.7996,53.7463 C607.7996,63.4103 610.8836,72.3873 616.1746,79.8303 L698.7996,150.1833 C700.7976,152.0953 702.0386,154.7343 702.0386,157.6523 C702.0386,163.4833 697.0846,168.2103 690.9756,168.2103 L523.6016,168.2023 C515.3326,167.4523 508.7866,160.8913 508.7866,152.8063 L508.7756,126.0233 L595.7516,126.0233 L595.6206,54.1253 L595.6206,54.1983 C595.6206,25.1113 567.1256,1.5323 531.9796,1.5323 C496.8266,1.5323 468.3346,25.1113 468.3346,54.1983 L468.3346,91.3643 L447.7616,91.3643 L447.7346,91.3763 C417.8866,91.3913 393.3686,113.1633 390.6676,140.9813 L390.6396,286.8283 L431.0946,286.8283 L431.1146,141.4573 C431.1146,133.3733 437.6606,126.8083 445.9296,126.0623 L468.3386,126.0623 L468.3386,153.2783 C471.0406,181.1013 495.5626,202.8723 525.4066,202.8833 L525.4296,202.8953 L690.9756,202.8953 C717.9176,202.8953 739.7616,182.0513 739.7616,156.3463 C739.7616,146.6743 737.2266,135.9933 730.0666,129.1573 L648.7576,59.9013 C646.7556,57.9923 645.5236,55.3493 645.5236,52.4323 C645.5236,46.6053 650.4776,41.8783 656.5836,41.8783" id="Fill-5" fill="#00689F"></path>
                <mask id="mask-4" fill="white">
                    <use xlink:href="#path-3"></use>
                </mask>
                <g id="Clip-8"></g>
                <polygon id="Fill-7" fill="#E66A1E" mask="url(#mask-4)" points="761.235 41.951 801.671 41.951 801.671 7.161 761.235 7.161"></polygon>
            </g>
        </g>
        <g id="Group" transform="translate(465.000000, 234.000000)" fill="#E66A1E">
            <path d="M44.7567629,0.474495138 L51,0.474495138 L51,28.5747195 C51,34.5097981 50.6860942,38.994166 50.0505319,42.0278235 C49.4692249,44.8786836 47.9035714,47.2005984 45.3341945,48.997457 C43.656155,50.1486911 41.3425532,50.9459985 38.3972644,51.3699327 C35.475228,51.7899776 30.8480243,52 24.5079027,52 C17.9507599,52 13.0910334,51.6032909 9.92097264,50.8098728 C6.75478723,50.0281227 4.39855623,48.6240838 2.85227964,46.621092 C2.10820669,45.6721017 1.61215805,44.7308901 1.36800912,43.8091249 C1.14323708,42.9106956 1.0424772,41.5961107 1.0424772,39.849813 L7.3981003,39.849813 C7.53761398,41.2460733 7.81276596,42.315632 8.22743161,43.0584892 C8.64597264,43.8246821 9.33966565,44.4664174 10.3356383,44.9953628 C12.5136018,46.2088257 17.0129179,46.8155572 23.8490881,46.8155572 C29.7474164,46.8155572 34.0297112,46.570531 36.699848,46.0649215 C39.3738602,45.5904263 41.2495441,44.7075542 42.3191489,43.4163052 C43.1756079,42.3584144 43.7530395,41.1099476 44.0553191,39.6553478 C44.3575988,38.2279731 44.5823708,35.6065819 44.7180091,31.7795064 L44.3033435,31.7795064 C42.5981763,33.805834 40.5674772,35.1281975 38.2306231,35.7310396 C35.8860182,36.3416604 31.5378419,36.6489155 25.1705927,36.6489155 C19.8806991,36.6489155 15.7766717,36.4194465 12.8585106,35.9721765 C9.93647416,35.5249065 7.71588146,34.7548242 6.2006079,33.6774869 C4.04977204,32.1684368 2.48024316,30.1810022 1.4881459,27.7035153 C0.499924012,25.2221391 0,22.052356 0,18.2019447 C0,9.8710546 2.67788754,4.48436799 8.01816109,2.05355273 C9.72720365,1.29124907 11.9322948,0.762303665 14.63731,0.474495138 C17.3345745,0.155572177 21.2719605,0 26.4494681,0 C30.7201368,0 33.8088146,0.116679132 35.7077508,0.353926702 C37.63769,0.591174271 39.2575988,1.0540015 40.5868541,1.74240838 C42.2106383,2.63694839 43.5011398,3.82318624 44.4661094,5.30501122 L44.8420213,5.30501122 L44.7567629,0.474495138 Z M26.4494681,5.22333583 C18.7917173,5.22333583 13.7110942,5.83006731 11.199848,7.03964099 C8.14217325,8.5448018 6.61139818,12.3329843 6.61139818,18.3964099 C6.61139818,24.5454001 8.33981763,28.415258 11.781155,29.9982049 C13.8467325,30.9471952 18.4584347,31.4216904 25.6240122,31.4216904 C33.425152,31.4216904 38.3817629,30.7760658 40.5054711,29.4848168 C42.043997,28.5319372 43.1329787,27.1551234 43.7646657,25.3660434 C44.431231,23.573074 44.7567629,21.0255797 44.7567629,17.7274495 C44.7567629,14.5887809 44.3886018,12.18908 43.6445289,10.5244577 C42.9004559,8.86372476 41.6332067,7.62692595 39.8427812,6.80628272 C37.5834347,5.74839192 33.118997,5.22333583 26.4494681,5.22333583 L26.4494681,5.22333583 Z" id="Fill-1"></path>
            <path d="M59,1.4740771 L65.217182,1.4740771 L65.217182,6.53737601 L65.6293279,6.53737601 C66.5974819,4.84701912 68.0749861,3.514163 70.0657286,2.53492177 C71.2555082,1.95981184 72.8185521,1.5634523 74.7548602,1.35361489 C76.7144973,1.11657634 79.630624,1 83.5032401,1 C87.3719682,1 90.2453249,1.20983741 92.1271987,1.62951222 C94.0324014,2.02975764 95.6615442,2.76418857 97.0185151,3.84446262 C99.6702463,6.03609776 101,9.58001841 101,14.4801104 L101,18.3582166 L94.6117386,18.3582166 L94.6117386,15.6653032 C94.6117386,13.5863585 94.4639882,12.0164639 94.160711,10.9595051 C93.8807628,9.88311688 93.3714127,9.0010226 92.6209961,8.31322221 C91.0501759,6.91430617 87.7724495,6.21873402 82.7994816,6.21873402 C75.3069802,6.21873402 70.4973153,7.1552306 68.3704869,9.02045199 C66.2669876,10.8701299 65.217182,15.0863074 65.217182,21.6806422 L65.217182,39 L59,39 L59,1.4740771 Z" id="Fill-3"></path>
            <path d="M128.785971,1 C134.876894,1 139.364741,1.18806181 142.249512,1.54883345 C145.157239,1.88273912 147.429857,2.52368448 149.063541,3.46399354 C151.512153,4.86870013 153.279745,6.87213413 154.366317,9.47429553 C155.452888,12.0534289 155.992348,15.5690334 156,20.021109 C156,24.968286 155.349587,28.7333603 154.04111,31.3048177 C153.088447,33.2583577 151.810578,34.7858802 150.203676,35.8797091 C148.627382,36.9697 146.549887,37.7641652 143.963541,38.2592667 C141.461365,38.7543682 137.294899,39 131.475619,39 C125.981545,39 121.834209,38.8311282 119.033608,38.4972225 C116.229182,38.1326129 113.956564,37.4955055 112.21958,36.5820624 C109.637059,35.2541157 107.785296,33.3005757 106.671943,30.7214423 C105.554764,28.1154429 105,24.4846985 105,19.8215332 C105,14.6210484 105.799625,10.6755883 107.406527,7.98899101 C109.036384,5.23714776 111.297524,3.38339562 114.174644,2.44692455 C117.059415,1.51045349 121.926032,1.02686597 128.785971,1 M129.765416,6.15826684 C125.709902,6.15826684 122.649137,6.3041107 120.583121,6.58428442 C118.517104,6.87213413 116.871943,7.39410161 115.647637,8.14634885 C114.205251,9.03676396 113.160765,10.4376326 112.506527,12.3681446 C111.856114,14.2679527 111.523256,16.8739521 111.523256,20.1746288 C111.523256,23.9281891 111.959415,26.7376023 112.827907,28.6105444 C113.704051,30.4642965 115.196174,31.7807292 117.31958,32.5560044 C119.661065,33.4118776 124.213953,33.8532471 130.985896,33.8532471 C135.393398,33.8532471 138.630158,33.6920513 140.696174,33.3811736 C142.792798,33.0626199 144.453263,32.4792445 145.673743,31.6233714 C147.035784,30.7099283 147.996099,29.3474397 148.573818,27.5167155 C149.166842,25.6975053 149.469092,23.1375619 149.469092,19.8215332 C149.469092,15.9259671 149.009977,13.0589839 148.08027,11.2320978 C147.047262,9.20563579 145.321755,7.84698515 142.899925,7.17149783 C140.508702,6.4960105 136.127982,6.15826684 129.765416,6.15826684" id="Fill-5"></path>
            <path d="M163,1 L169.142787,1 L169.142787,20.0252634 C169.142787,23.5310422 169.327071,26.0457195 169.714834,27.5770686 C170.098758,29.081211 170.847411,30.3055129 171.968469,31.2577478 C173.085689,32.1750026 174.621385,32.8318503 176.594756,33.2360642 C178.583483,33.6014115 181.378451,33.7879718 184.987339,33.7879718 C189.648178,33.7879718 193.268584,33.4420579 195.837036,32.7541168 C198.428525,32.0739491 200.37502,30.9390406 201.69572,29.3571648 C202.5058,28.4088166 203.066329,27.2194947 203.369629,25.7969725 C203.695965,24.3472435 203.857213,22.2639869 203.857213,19.5433159 L203.857213,1 L210,1 L210,38.5335993 L203.857213,38.5335993 L203.857213,32.9134704 L203.492485,32.9134704 C201.933753,35.3193209 199.860562,36.9400634 197.269074,37.7795847 C194.673746,38.5996727 190.35076,39 184.292436,39 C179.539454,39 175.81539,38.7279329 173.116403,38.1721387 C170.409737,37.6202312 168.294315,36.6990897 166.766296,35.4087143 C165.376491,34.2465992 164.389806,32.6530633 163.821598,30.6203334 C163.272586,28.5914902 163,25.6376189 163,21.7626061 L163,1 Z" id="Fill-7"></path>
            <path d="M218,52 L218,1.46962035 L224.212311,1.46962035 L224.212311,6.25050947 L224.585282,6.25050947 C225.937305,4.12951921 227.8449,2.73605555 230.304182,2.05087176 C232.759579,1.35029059 237.079835,1 243.27272,1 C248.599223,1 252.604784,1.18476866 255.285518,1.54660729 C257.993449,1.90844592 260.211853,2.57823232 261.956273,3.54441845 C264.664204,5.03411578 266.513522,7.07426976 267.511998,9.65718167 C268.502704,12.1592573 269,15.6390671 269,20.073515 C269,25.6897124 268.086996,29.8277606 266.260989,32.4915088 C264.442752,35.1860518 261.967929,36.9567515 258.848176,37.8190052 C255.755618,38.6851083 250.339758,39.1085365 242.608364,39.1085365 C236.943856,39.1085365 232.887789,38.781342 230.428506,38.126953 C227.965339,37.4533172 226.022777,36.1483886 224.585282,34.2160163 L224.212311,34.2160163 L224.212311,52 L218,52 Z M244.721871,6.16967318 C239.721719,6.16967318 236.007542,6.32749641 233.57934,6.64314288 C231.143369,6.92799457 229.336787,7.45150577 228.147939,8.20597781 C226.683248,9.14906785 225.62261,10.5155861 224.958254,12.3170805 C224.321094,14.0954789 224.002514,16.547513 224.002514,19.6808816 C224.002514,23.3685561 224.352175,26.1439354 225.043727,28.0224168 C225.758589,29.9085969 226.974632,31.2905125 228.687971,32.1797117 C230.952998,33.3460639 235.537442,33.9427127 242.441304,33.9427127 C247.056829,33.9427127 250.518473,33.7964375 252.841776,33.5038871 C255.18839,33.1959393 256.967776,32.6608801 258.187705,31.8987093 C259.679592,30.963318 260.74023,29.5891011 261.37739,27.791456 C262.041746,25.9591667 262.371981,23.4455431 262.371981,20.2313382 C262.371981,16.6014039 262.026206,13.8722168 261.334654,12.0476262 C260.643102,10.1922409 259.442599,8.81417465 257.733145,7.93267416 C255.518626,6.75477395 251.182829,6.16967318 244.721871,6.16967318 L244.721871,6.16967318 Z" id="Fill-9"></path>
        </g>
    </g>
</svg>
